<?xml version="1.0" encoding="utf-8"?>
<!-- Generator: Adobe Illustrator 27.9.0, SVG Export Plug-In . SVG Version: 6.00 Build 0)  -->
<svg version="1.1" id="Capa_1" xmlns="http://www.w3.org/2000/svg" xmlns:xlink="http://www.w3.org/1999/xlink" x="0px" y="0px"
	 viewBox="0 0 560.79 94.33" style="enable-background:new 0 0 560.79 94.33;" xml:space="preserve">
<style type="text/css">
	.st0{fill:#FFFFFF;}
</style>
<g>
	<g>
		<g>
			<g>
				<path class="st0" d="M225.92,61.05c-0.23-0.14-0.47-0.26-0.73-0.36c-0.66-0.26-1.4-0.4-2.21-0.4c-0.82,0-1.57,0.13-2.23,0.4
					c-0.66,0.26-1.23,0.65-1.7,1.14s-0.83,1.1-1.08,1.79s-0.38,1.48-0.38,2.34s0.13,1.65,0.38,2.34c0.25,0.7,0.61,1.3,1.08,1.79
					c0.47,0.49,1.04,0.87,1.7,1.14c0.66,0.26,1.41,0.4,2.23,0.4c0.81,0,1.56-0.13,2.21-0.4c0.25-0.1,0.49-0.22,0.73-0.36v0.73h2.56
					V55.97h-2.56V61.05z M225.17,63.15c0.49,0.66,0.73,1.61,0.73,2.81c0,1.21-0.25,2.15-0.73,2.81c-0.48,0.65-1.2,0.97-2.19,0.97
					c-1.01,0-1.73-0.32-2.22-0.97c-0.49-0.66-0.74-1.6-0.74-2.81s0.25-2.15,0.74-2.81s1.21-0.98,2.22-0.98
					C223.96,62.18,224.7,62.51,225.17,63.15z"/>
				<path class="st0" d="M238.86,61.59c-0.42-0.42-0.91-0.75-1.48-0.96c-0.57-0.22-1.19-0.33-1.86-0.33c-0.79,0-1.52,0.14-2.16,0.42
					s-1.19,0.67-1.64,1.16c-0.44,0.49-0.79,1.07-1.02,1.73c-0.24,0.66-0.36,1.38-0.36,2.13c0,0.94,0.13,1.79,0.39,2.51
					c0.26,0.73,0.63,1.35,1.11,1.84s1.04,0.88,1.68,1.13c0.64,0.25,1.35,0.38,2.1,0.38c0.39,0,0.8-0.03,1.2-0.1
					c0.4-0.06,0.8-0.17,1.18-0.3c0.38-0.14,0.74-0.32,1.08-0.54c0.33-0.21,0.63-0.47,0.89-0.77l0.06-0.07l-0.92-1.57l-0.12,0.13
					c-0.6,0.61-1.58,0.99-1.94,1.14l-0.1,0.04c-0.32,0.1-0.71,0.15-1.15,0.15c-0.47,0-0.89-0.08-1.27-0.22
					c-0.37-0.15-0.7-0.37-0.97-0.67c-0.27-0.3-0.49-0.68-0.64-1.14c-0.14-0.42-0.23-0.93-0.26-1.5h6.89c0.24,0,0.41-0.08,0.5-0.22
					s0.13-0.36,0.13-0.71c0-0.77-0.12-1.48-0.35-2.1C239.6,62.53,239.28,62.01,238.86,61.59z M238.06,64.63h-5.32
					c0.14-0.78,0.44-1.4,0.88-1.85c0.47-0.47,1.12-0.71,1.95-0.71c0.4,0,0.76,0.07,1.06,0.2c0.31,0.13,0.57,0.32,0.78,0.56
					c0.22,0.24,0.37,0.52,0.48,0.85C237.99,63.97,238.05,64.29,238.06,64.63z"/>
			</g>
			<g>
				<path class="st0" d="M267.18,61.83c-0.46-0.49-1.03-0.88-1.7-1.14c-0.66-0.26-1.4-0.4-2.21-0.4c-0.82,0-1.57,0.13-2.23,0.4
					c-0.66,0.26-1.23,0.65-1.7,1.14c-0.47,0.49-0.83,1.1-1.08,1.79s-0.38,1.48-0.38,2.34s0.13,1.65,0.38,2.34
					c0.25,0.7,0.61,1.3,1.08,1.79c0.47,0.49,1.04,0.87,1.7,1.14c0.66,0.26,1.41,0.4,2.23,0.4c0.81,0,1.56-0.13,2.21-0.4
					c0.66-0.26,1.23-0.65,1.7-1.14c0.46-0.49,0.82-1.09,1.07-1.79s0.37-1.48,0.37-2.34s-0.13-1.64-0.37-2.33
					C268,62.93,267.64,62.33,267.18,61.83z M266.19,65.97c0,1.21-0.25,2.15-0.73,2.81c-0.48,0.65-1.2,0.97-2.19,0.97
					c-1.01,0-1.73-0.32-2.22-0.97c-0.49-0.66-0.74-1.6-0.74-2.81s0.25-2.15,0.74-2.81s1.21-0.98,2.22-0.98
					c0.98,0,1.71,0.33,2.19,0.98C265.95,63.81,266.19,64.76,266.19,65.97z"/>
				<path class="st0" d="M255.23,63.93c-0.35-0.3-0.75-0.56-1.2-0.76c-0.43-0.19-0.88-0.37-1.35-0.52l-0.12-0.04
					c-0.42-0.14-0.82-0.27-1.22-0.4c-0.42-0.13-0.8-0.29-1.14-0.48c-0.32-0.18-0.59-0.4-0.79-0.65c-0.19-0.24-0.28-0.55-0.28-0.92
					c0-0.29,0.06-0.57,0.16-0.82c0.11-0.25,0.27-0.47,0.48-0.65c0.21-0.19,0.49-0.34,0.8-0.44c0.32-0.11,0.71-0.16,1.14-0.16
					c0.46,0,0.86,0.06,1.19,0.16c0.33,0.11,0.62,0.24,0.86,0.38s0.45,0.27,0.6,0.38c0.37,0.26,0.69,0.23,0.89,0.09
					c0.1-0.07,0.18-0.17,0.26-0.3l0.61-1.15l-0.07-0.07c-0.54-0.51-1.19-0.91-1.93-1.18s-1.55-0.41-2.43-0.41
					c-0.78,0-1.49,0.12-2.1,0.36c-0.61,0.24-1.14,0.56-1.56,0.96s-0.75,0.86-0.97,1.38c-0.22,0.51-0.33,1.05-0.33,1.61
					c0,0.69,0.11,1.27,0.32,1.74c0.22,0.47,0.5,0.87,0.86,1.18c0.35,0.31,0.75,0.57,1.2,0.76c0.43,0.19,0.89,0.36,1.35,0.5
					s0.9,0.28,1.34,0.41c0.43,0.13,0.81,0.29,1.14,0.47c0.33,0.18,0.58,0.4,0.78,0.66c0.19,0.26,0.28,0.59,0.28,1
					c0,0.37-0.06,0.71-0.19,1.01c-0.13,0.3-0.31,0.56-0.55,0.77s-0.54,0.38-0.89,0.49c-0.36,0.12-0.77,0.18-1.22,0.18
					c-0.56,0-1.04-0.07-1.42-0.22c-0.39-0.15-0.73-0.31-1.01-0.49c-0.29-0.18-0.53-0.35-0.72-0.5c-0.39-0.31-0.72-0.31-0.98-0.15
					c-0.1,0.06-0.19,0.14-0.27,0.25l-0.71,1.15l0.07,0.08c0.29,0.3,0.62,0.58,0.99,0.83s0.77,0.46,1.18,0.63
					c0.42,0.17,0.87,0.31,1.34,0.4s0.96,0.14,1.46,0.14c0.83,0,1.59-0.13,2.25-0.38s1.22-0.61,1.68-1.05
					c0.45-0.44,0.8-0.97,1.04-1.56c0.24-0.59,0.36-1.23,0.36-1.91c0-0.63-0.11-1.18-0.33-1.63
					C255.88,64.61,255.59,64.23,255.23,63.93z"/>
				<path class="st0" d="M301.27,60.46c-0.13,0.1-0.22,0.22-0.27,0.37l-1.99,6.77c-0.07,0.28-0.13,0.56-0.19,0.82
					c-0.01,0.05-0.02,0.11-0.03,0.16c-0.02-0.06-0.03-0.12-0.05-0.18c-0.07-0.26-0.15-0.53-0.23-0.81l-2.12-6.8
					c-0.04-0.15-0.13-0.28-0.26-0.37s-0.28-0.14-0.47-0.14h-0.91c-0.17,0-0.32,0.05-0.44,0.14c-0.12,0.09-0.21,0.22-0.25,0.36
					l-2.17,6.81c-0.08,0.27-0.15,0.54-0.23,0.8c-0.02,0.06-0.04,0.13-0.05,0.19c-0.01-0.06-0.02-0.12-0.03-0.18
					c-0.05-0.26-0.11-0.53-0.17-0.81l-1.96-6.76c-0.05-0.15-0.14-0.28-0.27-0.37c-0.13-0.1-0.3-0.14-0.49-0.14h-1.83l3.56,11.18
					l0.03,0.09h1.68c0.21,0,0.48-0.09,0.59-0.49l2.32-7.15c0.05-0.16,0.1-0.33,0.14-0.5c0.04,0.16,0.08,0.32,0.14,0.48l2.29,7.17
					c0.11,0.41,0.35,0.5,0.54,0.5h1.77l3.58-11.28h-1.77C301.55,60.32,301.4,60.37,301.27,60.46z"/>
				<path class="st0" d="M312.57,64.34l-0.01-0.17l0,0c-0.03-0.52-0.1-0.96-0.24-1.35c-0.17-0.51-0.43-0.96-0.77-1.33
					s-0.76-0.66-1.26-0.87c-0.49-0.21-1.06-0.31-1.7-0.31c-0.86,0-1.67,0.15-2.39,0.43s-1.4,0.72-2.01,1.3l-0.08,0.07l0.43,0.76
					c0.07,0.12,0.17,0.22,0.29,0.31c0.27,0.21,0.69,0.19,1.04-0.05c0.17-0.11,0.36-0.23,0.58-0.37c0.21-0.13,0.48-0.25,0.78-0.36
					c0.29-0.11,0.67-0.16,1.1-0.16c0.63,0,1.12,0.19,1.44,0.55c0.2,0.23,0.38,0.47,0.42,0.99v1.38c-1.16,0.04-2.15,0.15-2.95,0.33
					c-0.86,0.2-1.56,0.46-2.09,0.77c-0.54,0.32-0.94,0.69-1.18,1.09c-0.24,0.41-0.37,0.84-0.37,1.28c0,0.49,0.08,0.93,0.25,1.31
					c0.17,0.37,0.4,0.69,0.69,0.94s0.63,0.44,1.03,0.56c0.39,0.12,0.8,0.18,1.24,0.18c0.41,0,0.8-0.04,1.14-0.11
					c0.35-0.07,0.68-0.18,0.98-0.32c0.3-0.14,0.59-0.31,0.87-0.51c0.13-0.09,0.26-0.2,0.39-0.3v1.21h2.36l0.01-7.08
					c0-0.04,0-0.07-0.01-0.11C312.57,64.38,312.57,64.36,312.57,64.34z M310.2,66.72v1.97c-0.19,0.2-0.36,0.35-0.51,0.47
					c-0.21,0.16-0.42,0.3-0.65,0.41c-0.22,0.11-0.47,0.2-0.73,0.26c-0.45,0.11-1.04,0.13-1.49,0.01c-0.19-0.05-0.35-0.13-0.49-0.24
					c-0.14-0.11-0.25-0.25-0.32-0.42c-0.08-0.18-0.12-0.38-0.12-0.63s0.07-0.48,0.22-0.68c0.15-0.21,0.4-0.39,0.75-0.55
					c0.35-0.16,0.83-0.3,1.41-0.4C308.79,66.82,309.44,66.75,310.2,66.72z"/>
				<path class="st0" d="M330.5,65.95c0.09-0.14,0.13-0.36,0.13-0.71c0-0.77-0.12-1.48-0.35-2.1c-0.24-0.61-0.56-1.14-0.98-1.56
					c-0.42-0.42-0.91-0.75-1.48-0.96c-0.57-0.22-1.19-0.33-1.86-0.33c-0.79,0-1.52,0.14-2.16,0.42s-1.19,0.67-1.64,1.16
					c-0.44,0.49-0.79,1.07-1.02,1.73c-0.24,0.66-0.36,1.38-0.36,2.13c0,0.94,0.13,1.79,0.4,2.51c0.26,0.73,0.63,1.35,1.1,1.84
					s1.04,0.88,1.68,1.13c0.64,0.25,1.35,0.38,2.1,0.38c0.39,0,0.8-0.03,1.2-0.1c0.4-0.06,0.8-0.17,1.18-0.3s0.74-0.31,1.08-0.54
					c0.33-0.21,0.63-0.47,0.89-0.77l0.06-0.07l-0.92-1.57l-0.12,0.13c-0.6,0.61-1.58,0.99-1.94,1.14l-0.1,0.04
					c-0.32,0.1-0.71,0.15-1.15,0.15c-0.47,0-0.89-0.08-1.27-0.22c-0.37-0.15-0.7-0.37-0.97-0.67c-0.27-0.3-0.49-0.68-0.64-1.14
					c-0.14-0.43-0.23-0.93-0.26-1.5h6.89C330.24,66.18,330.41,66.1,330.5,65.95z M328.5,64.63h-5.32c0.14-0.78,0.44-1.4,0.88-1.85
					c0.47-0.47,1.12-0.71,1.95-0.71c0.4,0,0.76,0.07,1.07,0.2c0.3,0.13,0.57,0.32,0.78,0.56s0.37,0.53,0.48,0.85
					C328.43,63.97,328.49,64.29,328.5,64.63z"/>
				<path class="st0" d="M320.4,60.47c-0.06-0.03-0.12-0.06-0.2-0.08c-0.22-0.06-0.46-0.08-0.7-0.08c-0.72,0-1.34,0.21-1.86,0.64
					c-0.34,0.28-0.65,0.64-0.93,1.09v-1.75h-2.36v11.17l0.02,0.13h2.35v-6.62c0.02-0.35,0.27-0.89,0.42-1.14
					c0.15-0.26,0.32-0.48,0.51-0.66c0.19-0.17,0.4-0.31,0.64-0.4c0.24-0.09,0.53-0.13,0.84-0.13c0.22,0,0.42,0.02,0.62,0.06
					c0.38,0.08,0.57,0.1,0.75-0.03l0.06-0.04v-2.08l-0.08-0.03C320.45,60.5,320.43,60.49,320.4,60.47z"/>
				<path class="st0" d="M274.35,55.96c-0.6,0-1.15,0.09-1.62,0.27c-0.48,0.18-0.9,0.44-1.25,0.79c-0.34,0.35-0.61,0.77-0.79,1.26
					c-0.18,0.49-0.28,1.05-0.28,1.68v0.32h-2.1v1.91h2.1v9.4h2.36l-0.05-9.4h3.11v-1.91h-3.13v-0.26c0-0.43,0.05-0.79,0.14-1.07
					c0.09-0.28,0.23-0.5,0.39-0.67c0.18-0.18,0.42-0.3,0.71-0.37c0.13-0.03,0.27-0.04,0.42-0.06h0.03c0.63-0.02,1.25,0.19,1.25,0.19
					l0.18,0.06v-1.9l-0.09-0.03C275.33,56.04,274.86,55.96,274.35,55.96z"/>
				<path class="st0" d="M283.75,69.7l-0.06-0.01c-0.14-0.01-0.28-0.02-0.4-0.05c-0.28-0.07-0.52-0.19-0.7-0.37
					c-0.17-0.17-0.3-0.39-0.39-0.67c-0.1-0.28-0.14-0.63-0.14-1.07l0.03-5.34h3.1v-1.91h-3.09l0.02-4.32h-2.36v4.32h-2.1v1.91h2.1
					v5.41c0,0.63,0.09,1.19,0.28,1.68c0.18,0.49,0.45,0.92,0.79,1.26c0.34,0.35,0.76,0.61,1.25,0.79c0.48,0.18,1.02,0.27,1.62,0.27
					c0.51,0,0.98-0.07,1.4-0.22l0.09-0.03v-1.9l-0.18,0.06C285,69.51,284.4,69.72,283.75,69.7z"/>
			</g>
			<g>
				<path class="st0" d="M165.64,64.34l-0.01-0.17l0,0c-0.03-0.52-0.1-0.96-0.24-1.35c-0.17-0.51-0.43-0.96-0.77-1.33
					c-0.34-0.37-0.76-0.66-1.26-0.87c-0.49-0.21-1.06-0.31-1.7-0.31c-0.86,0-1.67,0.15-2.39,0.43s-1.4,0.72-2.01,1.3l-0.08,0.07
					l0.43,0.76c0.07,0.12,0.17,0.22,0.29,0.31c0.27,0.21,0.69,0.19,1.04-0.05c0.17-0.11,0.36-0.23,0.58-0.37
					c0.21-0.13,0.48-0.25,0.78-0.36c0.29-0.11,0.67-0.16,1.1-0.16c0.63,0,1.12,0.19,1.44,0.55c0.2,0.23,0.38,0.47,0.42,0.99v1.38
					c-1.16,0.04-2.15,0.15-2.95,0.33c-0.86,0.2-1.56,0.46-2.09,0.77c-0.54,0.32-0.94,0.69-1.18,1.09c-0.24,0.41-0.37,0.84-0.37,1.28
					c0,0.49,0.08,0.93,0.25,1.31c0.17,0.37,0.4,0.69,0.69,0.94c0.29,0.25,0.63,0.44,1.03,0.56c0.39,0.12,0.8,0.18,1.24,0.18
					c0.41,0,0.8-0.04,1.14-0.11c0.35-0.07,0.68-0.18,0.98-0.32s0.59-0.31,0.87-0.51c0.13-0.09,0.26-0.2,0.39-0.3v1.21h2.36
					l0.01-7.08c0-0.04,0-0.07-0.01-0.11C165.64,64.38,165.64,64.36,165.64,64.34z M163.27,66.72v1.97c-0.19,0.2-0.36,0.35-0.51,0.47
					c-0.21,0.16-0.42,0.3-0.65,0.41c-0.22,0.11-0.47,0.2-0.73,0.26c-0.45,0.11-1.04,0.13-1.49,0.01c-0.19-0.05-0.35-0.13-0.49-0.24
					s-0.25-0.25-0.32-0.42c-0.08-0.18-0.12-0.38-0.12-0.63s0.07-0.48,0.22-0.68c0.15-0.21,0.4-0.39,0.75-0.55
					c0.35-0.16,0.83-0.3,1.41-0.4C161.87,66.82,162.52,66.75,163.27,66.72z"/>
				<path class="st0" d="M135.11,63.83c0,1.16-0.18,2.22-0.55,3.18c-0.37,0.95-0.88,1.77-1.55,2.46c-0.67,0.68-1.47,1.21-2.4,1.59
					s-1.97,0.56-3.1,0.56h-5.76V56.04h5.76c1.14,0,2.17,0.19,3.1,0.56c0.93,0.38,1.73,0.91,2.4,1.59s1.19,1.5,1.55,2.46
					C134.92,61.61,135.11,62.67,135.11,63.83z M132.78,63.83c0-0.93-0.12-1.76-0.37-2.49c-0.25-0.73-0.6-1.36-1.06-1.87
					c-0.46-0.51-1.01-0.9-1.66-1.17s-1.38-0.4-2.18-0.4h-3.48v11.85h3.48c0.8,0,1.53-0.13,2.18-0.4s1.21-0.66,1.66-1.17
					c0.46-0.51,0.81-1.13,1.06-1.86C132.66,65.59,132.78,64.76,132.78,63.83z"/>
				<path class="st0" d="M155.37,66.89c-0.18-0.32-0.41-0.59-0.7-0.82c-0.28-0.22-0.6-0.41-0.96-0.56
					c-0.35-0.14-0.71-0.28-1.08-0.39c-0.36-0.11-0.72-0.22-1.07-0.32c-0.33-0.1-0.64-0.21-0.91-0.34c-0.26-0.12-0.46-0.26-0.62-0.42
					c-0.14-0.15-0.21-0.34-0.21-0.57c0-0.18,0.04-0.35,0.13-0.51c0.09-0.16,0.21-0.3,0.37-0.42c0.16-0.12,0.37-0.22,0.61-0.28
					c0.24-0.07,0.52-0.11,0.82-0.11c0.37,0,0.68,0.04,0.94,0.11c0.28,0.08,0.51,0.16,0.7,0.25c0.2,0.09,0.37,0.17,0.52,0.25
					c0.32,0.17,0.61,0.16,0.79,0.06c0.09-0.05,0.17-0.13,0.24-0.24l0.54-0.85l-0.08-0.08c-0.44-0.4-0.98-0.73-1.61-0.96
					c-0.62-0.23-1.32-0.35-2.09-0.35c-0.67,0-1.28,0.09-1.8,0.27s-0.97,0.42-1.33,0.72s-0.64,0.66-0.83,1.05
					c-0.19,0.4-0.29,0.82-0.29,1.26c0,0.49,0.09,0.91,0.27,1.25c0.18,0.34,0.41,0.63,0.69,0.87c0.28,0.23,0.61,0.43,0.97,0.58
					c0.35,0.15,0.72,0.28,1.09,0.4c0.37,0.11,0.73,0.22,1.08,0.32c0.34,0.1,0.65,0.21,0.91,0.34c0.26,0.13,0.46,0.28,0.62,0.45
					c0.14,0.16,0.22,0.37,0.22,0.61c0,0.2-0.04,0.39-0.12,0.57s-0.2,0.34-0.37,0.47c-0.17,0.14-0.38,0.25-0.64,0.33
					s-0.57,0.13-0.93,0.13c-0.43,0-0.79-0.05-1.08-0.14c-0.29-0.09-0.54-0.19-0.73-0.31c-0.2-0.11-0.38-0.22-0.53-0.32
					c-0.35-0.23-0.73-0.2-0.94-0.07c-0.11,0.06-0.2,0.16-0.27,0.27l-0.58,0.89l0.09,0.08c0.46,0.39,1.04,0.72,1.71,0.97
					c0.68,0.25,1.42,0.38,2.22,0.38c0.71,0,1.36-0.09,1.91-0.27c0.56-0.18,1.04-0.44,1.42-0.76c0.39-0.32,0.68-0.71,0.88-1.16
					c0.2-0.44,0.3-0.93,0.3-1.45C155.64,67.61,155.55,67.21,155.37,66.89z"/>
				<path class="st0" d="M144.79,61.59c-0.42-0.42-0.91-0.75-1.48-0.96c-0.57-0.22-1.19-0.33-1.86-0.33c-0.79,0-1.52,0.14-2.16,0.42
					s-1.19,0.67-1.64,1.16c-0.44,0.49-0.79,1.07-1.02,1.73c-0.24,0.66-0.36,1.38-0.36,2.13c0,0.94,0.13,1.79,0.39,2.51
					c0.26,0.73,0.63,1.35,1.11,1.84s1.04,0.88,1.68,1.13s1.35,0.38,2.1,0.38c0.39,0,0.8-0.03,1.2-0.1c0.4-0.06,0.8-0.17,1.18-0.3
					c0.38-0.14,0.74-0.32,1.08-0.54c0.33-0.21,0.63-0.47,0.89-0.77l0.06-0.07l-0.92-1.57l-0.12,0.13c-0.6,0.61-1.58,0.99-1.94,1.14
					l-0.1,0.04c-0.32,0.1-0.71,0.15-1.15,0.15c-0.47,0-0.89-0.08-1.27-0.22c-0.37-0.15-0.7-0.37-0.97-0.67
					c-0.27-0.3-0.49-0.68-0.64-1.14c-0.14-0.42-0.23-0.93-0.26-1.5h6.89c0.24,0,0.41-0.08,0.5-0.22s0.13-0.36,0.13-0.71
					c0-0.77-0.12-1.48-0.35-2.1C145.53,62.53,145.2,62.01,144.79,61.59z M143.99,64.63h-5.32c0.14-0.78,0.44-1.4,0.88-1.85
					c0.47-0.47,1.12-0.71,1.95-0.71c0.4,0,0.76,0.07,1.06,0.2c0.31,0.13,0.57,0.32,0.78,0.56c0.22,0.24,0.37,0.52,0.48,0.85
					C143.92,63.97,143.98,64.29,143.99,64.63z"/>
				<path class="st0" d="M210.41,61.83c-0.46-0.49-1.03-0.88-1.7-1.14c-0.66-0.26-1.4-0.4-2.21-0.4c-0.82,0-1.57,0.13-2.23,0.4
					c-0.66,0.26-1.23,0.65-1.7,1.14s-0.83,1.1-1.08,1.79s-0.38,1.48-0.38,2.34s0.13,1.65,0.38,2.34c0.25,0.7,0.61,1.3,1.08,1.79
					c0.47,0.49,1.04,0.87,1.7,1.14c0.66,0.26,1.41,0.4,2.23,0.4c0.81,0,1.56-0.13,2.21-0.4c0.66-0.26,1.23-0.65,1.7-1.14
					c0.46-0.49,0.82-1.09,1.07-1.79s0.37-1.48,0.37-2.34s-0.13-1.64-0.37-2.33C211.24,62.93,210.88,62.33,210.41,61.83z
					 M209.43,65.97c0,1.21-0.25,2.15-0.73,2.81c-0.48,0.65-1.2,0.97-2.19,0.97c-1.01,0-1.73-0.32-2.22-0.97
					c-0.49-0.66-0.74-1.6-0.74-2.81s0.25-2.15,0.74-2.81s1.21-0.98,2.22-0.98c0.98,0,1.71,0.33,2.19,0.98S209.43,64.76,209.43,65.97
					z"/>
				<path class="st0" d="M190.9,61.83c-0.46-0.49-1.03-0.88-1.7-1.14c-0.66-0.26-1.4-0.4-2.21-0.4c-0.82,0-1.57,0.13-2.23,0.4
					c-0.66,0.26-1.23,0.65-1.7,1.14s-0.83,1.1-1.08,1.79s-0.38,1.48-0.38,2.34s0.13,1.65,0.38,2.34c0.25,0.7,0.61,1.3,1.08,1.79
					c0.47,0.49,1.04,0.87,1.7,1.14c0.66,0.26,1.41,0.4,2.23,0.4c0.81,0,1.56-0.13,2.21-0.4c0.66-0.26,1.23-0.65,1.7-1.14
					c0.46-0.49,0.82-1.09,1.07-1.79s0.37-1.48,0.37-2.34s-0.13-1.64-0.37-2.33C191.73,62.93,191.37,62.33,190.9,61.83z
					 M189.92,65.97c0,1.21-0.25,2.15-0.73,2.81c-0.48,0.65-1.2,0.97-2.19,0.97c-1.01,0-1.73-0.32-2.22-0.97
					c-0.49-0.66-0.74-1.6-0.74-2.81s0.25-2.15,0.74-2.81s1.21-0.98,2.22-0.98c0.98,0,1.71,0.33,2.19,0.98S189.92,64.76,189.92,65.97
					z"/>
				<path class="st0" d="M180.9,60.47c-0.06-0.03-0.12-0.06-0.2-0.08c-0.22-0.06-0.46-0.08-0.7-0.08c-0.72,0-1.34,0.21-1.86,0.64
					c-0.34,0.28-0.65,0.64-0.93,1.09v-1.75h-2.36v11.17l0.02,0.13h2.35v-6.62c0.02-0.35,0.27-0.89,0.42-1.14
					c0.15-0.26,0.32-0.48,0.51-0.66c0.19-0.17,0.4-0.31,0.64-0.4s0.53-0.13,0.84-0.13c0.22,0,0.42,0.02,0.62,0.06
					c0.38,0.08,0.57,0.1,0.75-0.03l0.06-0.04v-2.08l-0.08-0.03C180.95,60.5,180.93,60.49,180.9,60.47z"/>
				<path class="st0" d="M173.51,60.47c-0.06-0.03-0.12-0.06-0.2-0.08c-0.22-0.06-0.46-0.08-0.7-0.08c-0.72,0-1.34,0.21-1.86,0.64
					c-0.34,0.28-0.65,0.64-0.93,1.09v-1.75h-2.36v11.17l0.02,0.13h2.35v-6.62c0.02-0.35,0.27-0.89,0.42-1.14
					c0.15-0.26,0.32-0.48,0.51-0.66c0.19-0.17,0.4-0.31,0.64-0.4s0.53-0.13,0.84-0.13c0.22,0,0.42,0.02,0.62,0.06
					c0.38,0.08,0.57,0.1,0.75-0.03l0.06-0.04v-2.08l-0.08-0.03C173.56,60.5,173.53,60.49,173.51,60.47z"/>
				<g>
					<polygon class="st0" points="193.81,71.59 196.11,71.59 196.11,61.59 196.11,55.97 193.81,55.97 					"/>
					<polygon class="st0" points="197.53,71.59 199.83,71.59 199.83,61.59 199.83,55.97 197.53,55.97 					"/>
				</g>
			</g>
		</g>
		<g>
			<g>
				<rect x="165.91" y="28.62" class="st0" width="7.07" height="22.02"/>
				<g>
					<rect x="165.91" y="21.68" class="st0" width="7.08" height="6.95"/>
				</g>
				<polygon class="st0" points="128.4,36.17 137.41,50.63 146.42,50.63 155.48,36.07 155.48,50.64 162.56,50.64 162.56,21.68 
					155.48,21.68 155.43,21.68 141.9,43.41 128.4,21.72 128.4,21.68 128.37,21.68 121.33,21.68 121.33,24.82 121.33,24.82 
					121.33,50.64 128.4,50.64 				"/>
				<polygon class="st0" points="309.37,50.64 336.42,50.64 340.82,43.57 313.76,43.57 313.76,21.68 306.68,21.68 306.68,50.64 				
					"/>
				<polygon class="st0" points="267.72,21.68 267.48,21.68 267.48,50.64 267.72,50.64 267.72,50.64 303.08,50.64 303.08,43.57 
					274.56,43.57 274.56,39.56 294.3,39.56 294.3,32.49 274.56,32.49 274.56,28.63 303.08,28.63 303.08,21.55 267.72,21.55 				"/>
				<path class="st0" d="M263.24,36.24V21.67h-7.09v2.07v12.5c0,4.14-3.37,7.51-7.51,7.51h-12.15c-4.14,0-7.51-3.37-7.51-7.51v-12.5
					v-2.07h-7.12c-0.04,4.76-0.09,13.37,0.03,14.57c0,8.05,6.55,14.6,14.6,14.6h12.15C256.69,50.85,263.24,44.3,263.24,36.24z"/>
				<path class="st0" d="M191.18,50.85h12.15c2.77,0,5.35-0.79,7.56-2.13v1.93h7.07V39.57v-5.56v-1.52h-0.54h-7.6h-12.46v7.07h12.69
					c-1.23,2.48-3.78,4.19-6.73,4.19h-12.15c-4.14,0-7.51-3.37-7.51-7.51s3.37-7.51,7.51-7.51h8.55l4.41-7.09h-12.96
					c-8.05,0-14.6,6.55-14.6,14.6S183.12,50.85,191.18,50.85z"/>
			</g>
			<g>
				<g>
					<polygon class="st0" points="502.33,21.3 502.33,25.67 502.33,46.28 502.33,47.37 502.33,50.66 522.83,50.66 522.83,46.28 
						506.71,46.28 506.71,40.32 522.8,40.32 522.8,35.94 506.71,35.94 506.71,25.67 522.83,25.67 522.83,21.29 502.33,21.29 					
						"/>
					<path class="st0" d="M498.39,30.8c0-5.26-4.28-9.53-9.53-9.53h-16.59v0.03h-3.76v29.36h4.38V40.34h14.51l6.46,10.38h4.53
						l-6.72-10.81C495.56,38.71,498.39,35.08,498.39,30.8z M472.89,25.67h15.97c2.83,0,5.13,2.3,5.13,5.13
						c0,2.83-2.3,5.13-5.13,5.13h-15.97V25.67z"/>
					<path class="st0" d="M364.37,21.27h-0.02h-5.02h-0.02l-0.06,0.1l-18.23,29.29h5.04l6.3-10.13h18.96l6.3,10.13h5.04
						l-18.23-29.29L364.37,21.27z M355.09,36.16l6.75-10.85l6.75,10.85H355.09z"/>
					<polygon class="st0" points="554.27,21.27 549.23,21.27 549.22,21.29 526.6,21.29 526.6,25.67 546.49,25.67 530.94,50.66 
						534.18,50.66 535.98,50.66 558.52,50.66 558.52,46.28 538.71,46.28 					"/>
					<path class="st0" d="M446.92,21.27h-0.02h-5.02h-0.02l-0.06,0.1l-18.23,29.29h5.04l6.3-10.13h18.96l6.3,10.13h5.04
						l-18.23-29.29L446.92,21.27z M437.63,36.16l6.75-10.85l6.75,10.85H437.63z"/>
					<polygon class="st0" points="431.79,21.27 416.01,46.63 400.23,21.27 395.19,21.27 413.42,50.56 413.48,50.66 413.5,50.66 
						418.52,50.66 418.55,50.66 418.61,50.56 436.84,21.27 					"/>
					<polygon class="st0" points="405.68,46.28 390.05,46.28 390.05,21.3 385.67,21.3 385.67,46.28 385.67,46.28 385.67,50.66 
						408.41,50.66 408.34,50.56 					"/>
				</g>
				<polygon class="st0" points="363.42,13.08 360,18.58 364.87,18.58 368.29,13.08 				"/>
			</g>
		</g>
	</g>
	<g>
		<g>
			<path class="st0" d="M49.8,34.75l-7.59,12.19l7.59,12.23l14.35,0.04l7.62-12.28l-7.62-12.24L49.8,34.75z M65.26,51.9l-0.01,0.02
				c-1.72,2.77-4.75,4.45-8,4.44h-0.57c-3.24-0.01-6.24-1.69-7.94-4.44l-0.01-0.02c-1.88-3.03-1.88-6.87,0.01-9.91l0,0
				c1.71-2.74,4.71-4.42,7.94-4.43h0.59c3.25-0.01,6.28,1.66,8,4.43l0,0C67.14,45.03,67.14,48.87,65.26,51.9z"/>
		</g>
		<path class="st0" d="M55.7,23.07c0.73,0,1.44-0.11,2.11-0.31l4.06,6.55H35.68c-1.28-3.19-4.7-5.29-8.49-4.5
			c-2.76,0.58-5,2.78-5.63,5.53c-0.5,2.21-0.01,4.29,1.11,5.92L9.3,57.71L2.59,46.93l17.82-28.72l28.31-0.04
			C49.76,21.02,52.49,23.07,55.7,23.07z"/>
		<path class="st0" d="M76.33,30.55c0-1.88,0.7-3.59,1.86-4.9L63.18,1.68H30.9l-7.02,11.13h24.93c1.11-2.71,3.78-4.63,6.89-4.63
			c4.12,0,7.45,3.34,7.45,7.45c0,1.8-0.64,3.45-1.7,4.74l13.29,21.36l3.72-5.98C77.14,34.42,76.33,32.58,76.33,30.55z"/>
		<path class="st0" d="M83.22,1.68L69.61,1.62l13.42,21.54c0.24-0.02,0.49-0.03,0.74-0.03l0,0l0,0c0.19,0,0.39,0.01,0.58,0.03
			c3.84,0.3,6.87,3.5,6.87,7.42c0,4.12-3.34,7.45-7.45,7.45c-0.11,0-0.22-0.01-0.33-0.02L70.36,59.25h8.32
			c1.03-2.86,3.76-4.91,6.98-4.91c0.39,0,0.77,0.04,1.15,0.1l14.65-23.47L83.22,1.68z"/>
		<path class="st0" d="M104.67,36.13L91.55,57.18c1,1.27,1.6,2.86,1.6,4.6c0,4.12-3.34,7.45-7.45,7.45c-3.14,0-5.83-1.95-6.92-4.71
			H52.11l4.08,6.57c0.68-0.2,1.39-0.32,2.14-0.32c3.21,0,5.93,2.04,6.97,4.89l28.27-0.04l17.82-28.72L104.67,36.13z"/>
		<path class="st0" d="M30.54,70.04c-0.23,0.02-0.45,0.03-0.68,0.03c-4.12,0-7.45-3.34-7.45-7.45s3.34-7.45,7.45-7.45
			c0.35,0,0.69,0.03,1.03,0.08l12.73-20.66h-7.85c-1.03,2.85-3.76,4.9-6.97,4.9c-0.54,0-1.07-0.06-1.57-0.17l-14.7,23.56
			l18.23,29.29l13.61,0.06L30.54,70.04z"/>
		<path class="st0" d="M65.19,81.04c-1.11,2.73-3.78,4.65-6.9,4.65c-4.12,0-7.45-3.34-7.45-7.45c0-1.8,0.64-3.45,1.7-4.74
			l-13.3-21.39l-3.61,5.8c1.06,1.28,1.69,2.92,1.69,4.71c0,1.91-0.72,3.64-1.91,4.95l15.4,24.59h32.27l7.02-11.13H65.19V81.04z"/>
	</g>
</g>
</svg>
