<?xml version="1.0" encoding="utf-8"?>
<!-- Generator: Adobe Illustrator 27.9.0, SVG Export Plug-In . SVG Version: 6.00 Build 0)  -->
<svg version="1.1" id="Capa_1" xmlns="http://www.w3.org/2000/svg" xmlns:xlink="http://www.w3.org/1999/xlink" x="0px" y="0px"
	 viewBox="0 0 470 135" style="enable-background:new 0 0 470 135;" xml:space="preserve">
<style type="text/css">
	.st0{fill:#FFFFFF;}
</style>
<g>
	<g>
		<g>
			<g>
				<path class="st0" d="M308.78,113.1c-0.32-0.19-0.65-0.36-0.99-0.49c-0.9-0.36-1.91-0.54-3.02-0.54c-1.12,0-2.14,0.18-3.03,0.54
					c-0.9,0.36-1.68,0.88-2.32,1.56c-0.64,0.67-1.13,1.5-1.47,2.44s-0.52,2.01-0.52,3.18c0,1.17,0.17,2.24,0.52,3.19
					c0.34,0.95,0.84,1.77,1.47,2.44c0.64,0.67,1.42,1.19,2.32,1.55s1.92,0.54,3.03,0.54c1.1,0,2.12-0.18,3.02-0.54
					c0.34-0.14,0.67-0.3,0.99-0.49v0.99h3.48v-21.28h-3.48V113.1z M307.76,115.97c0.66,0.9,1,2.19,1,3.83c0,1.64-0.34,2.93-1,3.82
					s-1.64,1.32-2.98,1.32c-1.37,0-2.36-0.43-3.02-1.33c-0.67-0.89-1.01-2.18-1.01-3.82s0.34-2.93,1.01-3.83
					c0.66-0.9,1.65-1.33,3.02-1.33C306.1,114.64,307.1,115.09,307.76,115.97z"/>
				<path class="st0" d="M326.41,113.84c-0.57-0.57-1.25-1.02-2.02-1.31c-0.77-0.3-1.62-0.45-2.53-0.45c-1.08,0-2.07,0.19-2.95,0.58
					c-0.87,0.38-1.62,0.92-2.23,1.58c-0.61,0.67-1.07,1.46-1.4,2.36c-0.32,0.9-0.49,1.87-0.49,2.9c0,1.29,0.18,2.44,0.54,3.42
					c0.35,0.99,0.86,1.83,1.51,2.51c0.65,0.67,1.42,1.19,2.3,1.54c0.87,0.35,1.83,0.52,2.86,0.52c0.54,0,1.09-0.04,1.63-0.13
					c0.55-0.09,1.09-0.23,1.61-0.41c0.52-0.19,1.01-0.43,1.48-0.73c0.45-0.29,0.86-0.65,1.21-1.05l0.09-0.1l-1.25-2.14l-0.17,0.17
					c-0.81,0.83-2.15,1.35-2.65,1.55l-0.14,0.05c-0.44,0.14-0.96,0.21-1.56,0.21c-0.64,0-1.22-0.1-1.73-0.3
					c-0.51-0.2-0.95-0.51-1.32-0.92s-0.66-0.93-0.88-1.55c-0.2-0.58-0.32-1.26-0.36-2.04h9.39c0.32,0,0.55-0.1,0.69-0.31
					c0.12-0.19,0.17-0.49,0.17-0.97c0-1.05-0.16-2.02-0.48-2.86C327.41,115.12,326.97,114.41,326.41,113.84z M325.31,117.98h-7.25
					c0.19-1.06,0.6-1.91,1.2-2.52c0.64-0.64,1.53-0.97,2.66-0.97c0.55,0,1.04,0.09,1.45,0.27c0.42,0.18,0.77,0.44,1.06,0.76
					c0.29,0.33,0.51,0.71,0.66,1.16C325.22,117.08,325.3,117.52,325.31,117.98z"/>
			</g>
			<g>
				<path class="st0" d="M370,114.17c-0.63-0.67-1.41-1.2-2.31-1.56s-1.91-0.54-3.02-0.54c-1.12,0-2.14,0.18-3.03,0.54
					c-0.9,0.36-1.68,0.88-2.32,1.56c-0.64,0.67-1.13,1.5-1.47,2.44s-0.52,2.01-0.52,3.18c0,1.17,0.17,2.24,0.51,3.19
					s0.84,1.77,1.47,2.44c0.64,0.67,1.42,1.19,2.32,1.55s1.92,0.54,3.03,0.54c1.1,0,2.12-0.18,3.02-0.54
					c0.9-0.36,1.68-0.88,2.31-1.55c0.63-0.67,1.12-1.49,1.46-2.44c0.33-0.95,0.51-2.02,0.51-3.19s-0.17-2.24-0.51-3.18
					C371.12,115.66,370.63,114.84,370,114.17z M368.66,119.8c0,1.64-0.34,2.93-1,3.82s-1.64,1.32-2.98,1.32
					c-1.37,0-2.36-0.43-3.02-1.33c-0.67-0.89-1.01-2.18-1.01-3.82s0.34-2.93,1.01-3.83c0.66-0.9,1.65-1.33,3.02-1.33
					c1.33,0,2.33,0.45,2.98,1.33C368.32,116.87,368.66,118.16,368.66,119.8z"/>
				<path class="st0" d="M353.73,117.02c-0.47-0.41-1.02-0.76-1.63-1.03c-0.58-0.26-1.2-0.5-1.84-0.71l-0.16-0.05
					c-0.57-0.19-1.12-0.36-1.66-0.54c-0.57-0.18-1.09-0.4-1.56-0.65c-0.44-0.24-0.8-0.54-1.07-0.88c-0.26-0.32-0.39-0.74-0.39-1.25
					c0-0.4,0.08-0.77,0.22-1.11c0.15-0.34,0.37-0.64,0.66-0.89s0.66-0.46,1.1-0.61s0.96-0.22,1.55-0.22c0.63,0,1.17,0.08,1.62,0.22
					c0.46,0.15,0.85,0.33,1.17,0.51c0.33,0.19,0.61,0.36,0.82,0.52c0.5,0.35,0.94,0.32,1.21,0.12c0.13-0.09,0.25-0.23,0.36-0.41
					l0.83-1.57l-0.1-0.09c-0.74-0.7-1.62-1.24-2.63-1.61c-1-0.37-2.12-0.56-3.3-0.56c-1.07,0-2.03,0.16-2.86,0.49
					c-0.83,0.32-1.55,0.76-2.12,1.3s-1.02,1.17-1.32,1.87c-0.3,0.7-0.45,1.44-0.45,2.19c0,0.93,0.15,1.73,0.44,2.37
					c0.29,0.65,0.69,1.19,1.17,1.61c0.48,0.42,1.03,0.77,1.63,1.03c0.59,0.26,1.21,0.49,1.84,0.68c0.62,0.19,1.23,0.38,1.82,0.56
					c0.58,0.18,1.1,0.39,1.55,0.64c0.45,0.25,0.8,0.54,1.06,0.9c0.26,0.35,0.39,0.8,0.39,1.36c0,0.5-0.09,0.96-0.26,1.38
					c-0.17,0.41-0.42,0.76-0.75,1.05c-0.32,0.29-0.73,0.52-1.21,0.67c-0.49,0.16-1.04,0.24-1.66,0.24c-0.76,0-1.41-0.1-1.94-0.3
					c-0.53-0.2-1-0.43-1.38-0.67c-0.39-0.25-0.72-0.48-0.98-0.68c-0.54-0.42-0.99-0.43-1.33-0.21c-0.14,0.09-0.26,0.19-0.37,0.34
					l-0.96,1.57l0.1,0.1c0.39,0.41,0.85,0.79,1.35,1.13c0.5,0.33,1.05,0.62,1.61,0.86c0.57,0.24,1.19,0.42,1.82,0.55
					c0.64,0.13,1.31,0.19,1.99,0.19c1.13,0,2.16-0.17,3.06-0.52c0.9-0.34,1.67-0.83,2.28-1.43c0.62-0.6,1.09-1.32,1.42-2.13
					c0.32-0.81,0.49-1.68,0.49-2.6c0-0.86-0.15-1.61-0.45-2.22C354.6,117.96,354.21,117.44,353.73,117.02z"/>
				<path class="st0" d="M416.44,112.3c-0.18,0.13-0.31,0.3-0.36,0.51l-2.71,9.22c-0.1,0.38-0.18,0.76-0.26,1.12
					c-0.02,0.07-0.03,0.15-0.05,0.22c-0.02-0.08-0.04-0.16-0.06-0.24c-0.1-0.36-0.2-0.73-0.31-1.11l-2.88-9.27
					c-0.06-0.21-0.18-0.37-0.35-0.5s-0.39-0.19-0.64-0.19h-1.24c-0.23,0-0.44,0.06-0.61,0.19c-0.17,0.13-0.28,0.29-0.34,0.49
					l-2.96,9.28c-0.11,0.37-0.21,0.74-0.31,1.09c-0.02,0.09-0.05,0.17-0.07,0.26c-0.02-0.08-0.03-0.16-0.05-0.24
					c-0.07-0.36-0.15-0.72-0.24-1.11l-2.66-9.21c-0.06-0.21-0.19-0.38-0.37-0.51s-0.41-0.2-0.67-0.2h-2.49l4.85,15.23l0.04,0.13
					h2.29c0.28,0,0.65-0.12,0.8-0.67l3.16-9.74c0.07-0.22,0.14-0.45,0.2-0.69c0.06,0.22,0.12,0.44,0.19,0.65l3.11,9.76
					c0.15,0.56,0.48,0.68,0.73,0.68h2.41l4.88-15.36h-2.39C416.83,112.11,416.62,112.17,416.44,112.3z"/>
				<path class="st0" d="M431.84,117.58l-0.01-0.24h-0.01c-0.04-0.71-0.14-1.31-0.32-1.83c-0.23-0.7-0.59-1.31-1.05-1.81
					s-1.04-0.9-1.71-1.18c-0.67-0.28-1.45-0.42-2.31-0.42c-1.18,0-2.27,0.2-3.25,0.59c-0.98,0.39-1.91,0.98-2.74,1.77l-0.1,0.1
					l0.58,1.03c0.1,0.16,0.23,0.31,0.39,0.42c0.37,0.28,0.94,0.25,1.42-0.07c0.23-0.15,0.49-0.32,0.8-0.5
					c0.29-0.18,0.65-0.34,1.06-0.49c0.4-0.14,0.91-0.22,1.5-0.22c0.86,0,1.52,0.25,1.96,0.75c0.28,0.32,0.51,0.64,0.58,1.34v1.88
					c-1.57,0.05-2.92,0.2-4.01,0.45c-1.17,0.27-2.12,0.63-2.85,1.05c-0.74,0.43-1.28,0.94-1.61,1.49c-0.33,0.56-0.5,1.15-0.5,1.75
					c0,0.67,0.12,1.27,0.34,1.78c0.23,0.51,0.55,0.94,0.95,1.28c0.39,0.34,0.86,0.59,1.4,0.76c0.52,0.16,1.09,0.25,1.69,0.25
					c0.56,0,1.08-0.05,1.55-0.15s0.92-0.25,1.33-0.43c0.41-0.19,0.81-0.42,1.19-0.69c0.18-0.12,0.35-0.27,0.53-0.41v1.65h3.22
					l0.02-9.65c0-0.05,0-0.1-0.01-0.15C431.84,117.64,431.84,117.61,431.84,117.58z M428.61,120.83v2.68
					c-0.27,0.27-0.49,0.47-0.7,0.63c-0.28,0.22-0.58,0.41-0.89,0.56c-0.31,0.15-0.64,0.27-0.99,0.35c-0.61,0.15-1.41,0.18-2.03,0.02
					c-0.26-0.07-0.48-0.18-0.67-0.33s-0.34-0.34-0.44-0.58c-0.11-0.24-0.17-0.52-0.17-0.86s0.1-0.65,0.3-0.93
					c0.2-0.28,0.54-0.53,1.02-0.75c0.48-0.22,1.13-0.4,1.92-0.54C426.7,120.96,427.58,120.87,428.61,120.83z"/>
				<path class="st0" d="M456.27,119.78c0.12-0.19,0.17-0.49,0.17-0.97c0-1.05-0.16-2.02-0.48-2.86s-0.77-1.55-1.33-2.12
					c-0.57-0.57-1.24-1.02-2.01-1.31c-0.77-0.3-1.62-0.45-2.53-0.45c-1.08,0-2.07,0.19-2.95,0.58c-0.88,0.38-1.62,0.92-2.23,1.58
					c-0.61,0.67-1.07,1.46-1.4,2.36c-0.32,0.9-0.49,1.87-0.49,2.9c0,1.28,0.18,2.43,0.54,3.42c0.36,0.99,0.86,1.84,1.51,2.51
					s1.42,1.19,2.3,1.54c0.87,0.35,1.83,0.52,2.86,0.52c0.54,0,1.09-0.04,1.63-0.13c0.55-0.09,1.09-0.23,1.61-0.41
					s1.01-0.43,1.48-0.73c0.45-0.29,0.86-0.65,1.21-1.05l0.09-0.1l-1.25-2.14l-0.17,0.17c-0.81,0.83-2.15,1.35-2.65,1.55l-0.14,0.05
					c-0.44,0.14-0.96,0.21-1.56,0.21c-0.64,0-1.22-0.1-1.73-0.3c-0.51-0.2-0.95-0.51-1.32-0.92s-0.66-0.93-0.88-1.55
					c-0.2-0.58-0.32-1.27-0.35-2.04h9.39C455.91,120.09,456.14,119.99,456.27,119.78z M453.55,117.98h-7.25
					c0.19-1.06,0.6-1.91,1.2-2.52c0.64-0.64,1.53-0.97,2.65-0.97c0.55,0,1.04,0.09,1.45,0.27c0.41,0.18,0.77,0.44,1.06,0.76
					c0.29,0.33,0.51,0.72,0.66,1.16C453.45,117.08,453.53,117.52,453.55,117.98z"/>
				<path class="st0" d="M442.51,112.32c-0.08-0.04-0.16-0.08-0.27-0.11c-0.3-0.08-0.62-0.12-0.96-0.12c-0.98,0-1.83,0.29-2.53,0.87
					c-0.46,0.38-0.88,0.87-1.27,1.49v-2.38h-3.22v15.22l0.02,0.18h3.2v-9.03c0.02-0.48,0.37-1.21,0.57-1.56
					c0.21-0.36,0.44-0.66,0.7-0.9s0.55-0.42,0.88-0.54c0.33-0.12,0.72-0.18,1.15-0.18c0.29,0,0.58,0.03,0.84,0.08
					c0.52,0.1,0.77,0.13,1.02-0.03l0.08-0.05v-2.83l-0.11-0.05C442.58,112.35,442.55,112.34,442.51,112.32z"/>
				<path class="st0" d="M379.77,106.18c-0.82,0-1.56,0.12-2.21,0.36c-0.66,0.24-1.23,0.6-1.7,1.07s-0.83,1.05-1.08,1.72
					c-0.25,0.66-0.38,1.43-0.38,2.29v0.43h-2.86v2.6h2.86v12.81h3.22l-0.07-12.81h4.24v-2.6h-4.26v-0.35c0-0.58,0.07-1.07,0.19-1.45
					c0.13-0.38,0.31-0.68,0.53-0.91c0.25-0.24,0.58-0.41,0.96-0.5c0.17-0.04,0.37-0.06,0.58-0.08h0.04c0.86-0.03,1.7,0.25,1.71,0.26
					l0.24,0.09v-2.59l-0.12-0.04C381.1,106.28,380.46,106.18,379.77,106.18z"/>
				<path class="st0" d="M392.58,124.88l-0.08-0.01c-0.19-0.02-0.38-0.03-0.54-0.07c-0.38-0.09-0.71-0.26-0.96-0.5
					c-0.23-0.23-0.41-0.53-0.54-0.91c-0.13-0.39-0.19-0.86-0.19-1.45l0.04-7.28h4.22v-2.6h-4.21l0.03-5.88h-3.22v5.88h-2.86v2.6
					h2.86v7.37c0,0.86,0.13,1.63,0.38,2.29c0.25,0.67,0.61,1.25,1.08,1.72s1.04,0.83,1.7,1.08c0.65,0.24,1.39,0.36,2.21,0.36
					c0.69,0,1.33-0.1,1.91-0.3l0.12-0.04v-2.59l-0.24,0.09C394.28,124.63,393.47,124.91,392.58,124.88z"/>
			</g>
			<g>
				<path class="st0" d="M219.71,117.58l-0.01-0.24h-0.01c-0.04-0.71-0.14-1.31-0.32-1.83c-0.23-0.7-0.59-1.31-1.05-1.81
					s-1.04-0.9-1.71-1.18c-0.67-0.28-1.45-0.42-2.31-0.42c-1.18,0-2.27,0.2-3.25,0.59c-0.98,0.39-1.91,0.98-2.74,1.77l-0.1,0.1
					l0.58,1.03c0.1,0.16,0.23,0.31,0.39,0.42c0.37,0.28,0.94,0.25,1.42-0.07c0.23-0.15,0.49-0.32,0.8-0.5
					c0.29-0.18,0.65-0.34,1.06-0.49c0.4-0.14,0.91-0.22,1.5-0.22c0.86,0,1.52,0.25,1.96,0.75c0.28,0.32,0.51,0.64,0.58,1.34v1.88
					c-1.57,0.05-2.92,0.2-4.01,0.45c-1.17,0.27-2.12,0.63-2.85,1.05c-0.74,0.43-1.28,0.94-1.61,1.49c-0.33,0.56-0.5,1.15-0.5,1.75
					c0,0.67,0.12,1.27,0.34,1.78c0.23,0.51,0.55,0.94,0.95,1.28c0.39,0.34,0.86,0.59,1.4,0.76c0.52,0.16,1.09,0.25,1.69,0.25
					c0.56,0,1.08-0.05,1.55-0.15s0.92-0.25,1.33-0.43c0.41-0.19,0.81-0.42,1.19-0.69c0.18-0.12,0.35-0.27,0.53-0.41v1.65h3.22
					l0.02-9.65c0-0.05,0-0.1-0.01-0.15C219.72,117.64,219.71,117.61,219.71,117.58z M216.49,120.83v2.68
					c-0.27,0.27-0.49,0.47-0.7,0.63c-0.28,0.22-0.58,0.41-0.89,0.56c-0.31,0.15-0.64,0.27-0.99,0.35c-0.61,0.15-1.41,0.18-2.03,0.02
					c-0.26-0.07-0.48-0.18-0.67-0.33s-0.33-0.34-0.44-0.58c-0.11-0.24-0.17-0.52-0.17-0.86s0.1-0.65,0.3-0.93
					c0.2-0.28,0.54-0.53,1.02-0.75c0.48-0.22,1.13-0.4,1.92-0.54C214.57,120.96,215.46,120.87,216.49,120.83z"/>
				<path class="st0" d="M178.12,116.89c0,1.59-0.25,3.03-0.75,4.33s-1.2,2.42-2.11,3.35s-2,1.65-3.27,2.17
					c-1.27,0.51-2.68,0.77-4.23,0.77h-7.85v-21.22h7.85c1.55,0,2.96,0.26,4.23,0.77c1.27,0.51,2.36,1.23,3.27,2.17
					c0.91,0.93,1.62,2.05,2.11,3.35C177.87,113.87,178.12,115.31,178.12,116.89z M174.95,116.89c0-1.26-0.17-2.39-0.51-3.39
					s-0.82-1.85-1.45-2.54c-0.62-0.69-1.38-1.23-2.27-1.59s-1.88-0.55-2.97-0.55h-4.74v16.14h4.74c1.09,0,2.08-0.18,2.97-0.55
					c0.89-0.36,1.64-0.9,2.27-1.59c0.62-0.69,1.11-1.54,1.45-2.53C174.78,119.29,174.95,118.16,174.95,116.89z"/>
				<path class="st0" d="M205.73,121.06c-0.24-0.43-0.56-0.81-0.95-1.12c-0.38-0.3-0.82-0.56-1.31-0.76
					c-0.47-0.2-0.97-0.38-1.46-0.53s-0.98-0.3-1.45-0.44c-0.45-0.13-0.87-0.29-1.24-0.46c-0.35-0.16-0.63-0.35-0.84-0.58
					c-0.2-0.21-0.29-0.46-0.29-0.78c0-0.25,0.06-0.48,0.18-0.7s0.29-0.41,0.51-0.57s0.5-0.29,0.83-0.39s0.71-0.14,1.11-0.14
					c0.5,0,0.93,0.05,1.29,0.15c0.38,0.11,0.69,0.22,0.96,0.34c0.28,0.12,0.51,0.24,0.7,0.34c0.43,0.23,0.84,0.22,1.08,0.08
					c0.12-0.06,0.23-0.17,0.33-0.33l0.74-1.16l-0.11-0.11c-0.6-0.55-1.34-0.99-2.19-1.31c-0.84-0.31-1.8-0.47-2.85-0.47
					c-0.91,0-1.74,0.12-2.45,0.36c-0.71,0.24-1.32,0.57-1.81,0.98s-0.87,0.89-1.13,1.43c-0.26,0.54-0.39,1.12-0.39,1.71
					c0,0.66,0.12,1.23,0.36,1.7c0.24,0.46,0.56,0.86,0.95,1.18c0.38,0.32,0.83,0.58,1.32,0.79c0.48,0.2,0.98,0.38,1.48,0.54
					c0.5,0.15,0.99,0.3,1.47,0.43c0.46,0.13,0.88,0.29,1.24,0.46c0.35,0.17,0.63,0.38,0.84,0.61c0.2,0.22,0.3,0.5,0.3,0.83
					c0,0.27-0.06,0.53-0.17,0.78c-0.11,0.24-0.28,0.46-0.51,0.65s-0.51,0.34-0.87,0.46c-0.35,0.11-0.78,0.17-1.27,0.17
					c-0.58,0-1.08-0.06-1.46-0.19c-0.39-0.13-0.73-0.27-1-0.42c-0.28-0.15-0.52-0.3-0.72-0.43c-0.48-0.32-0.99-0.28-1.29-0.1
					c-0.15,0.09-0.27,0.21-0.37,0.37l-0.79,1.22l0.12,0.11c0.63,0.53,1.41,0.98,2.33,1.32c0.92,0.34,1.94,0.52,3.02,0.52
					c0.97,0,1.85-0.12,2.6-0.37c0.77-0.25,1.42-0.6,1.93-1.03c0.53-0.44,0.93-0.97,1.19-1.57c0.27-0.6,0.41-1.27,0.41-1.97
					C206.09,122.04,205.97,121.5,205.73,121.06z"/>
				<path class="st0" d="M191.31,113.84c-0.57-0.57-1.25-1.02-2.02-1.31c-0.77-0.3-1.62-0.45-2.53-0.45c-1.08,0-2.07,0.19-2.95,0.58
					c-0.87,0.38-1.62,0.92-2.23,1.58c-0.61,0.67-1.07,1.46-1.4,2.36c-0.32,0.9-0.49,1.87-0.49,2.9c0,1.29,0.18,2.44,0.54,3.42
					c0.35,0.99,0.86,1.83,1.51,2.51c0.65,0.67,1.42,1.19,2.3,1.54c0.87,0.35,1.83,0.52,2.86,0.52c0.54,0,1.09-0.04,1.63-0.13
					c0.55-0.09,1.09-0.23,1.61-0.41c0.52-0.19,1.01-0.43,1.48-0.73c0.45-0.29,0.86-0.65,1.21-1.05l0.09-0.1l-1.25-2.14l-0.17,0.17
					c-0.81,0.83-2.15,1.35-2.65,1.55l-0.14,0.05c-0.44,0.14-0.96,0.21-1.56,0.21c-0.64,0-1.22-0.1-1.73-0.3
					c-0.51-0.2-0.95-0.51-1.32-0.92c-0.37-0.41-0.66-0.93-0.88-1.55c-0.2-0.58-0.32-1.26-0.36-2.04h9.39c0.32,0,0.55-0.1,0.69-0.31
					c0.12-0.19,0.17-0.49,0.17-0.97c0-1.05-0.16-2.02-0.48-2.86C192.32,115.12,191.87,114.41,191.31,113.84z M190.22,117.98h-7.25
					c0.19-1.06,0.6-1.91,1.2-2.52c0.64-0.64,1.53-0.97,2.66-0.97c0.55,0,1.04,0.09,1.45,0.27c0.42,0.18,0.77,0.44,1.06,0.76
					c0.29,0.33,0.51,0.71,0.66,1.16C190.12,117.08,190.2,117.52,190.22,117.98z"/>
				<path class="st0" d="M280.71,114.17c-0.63-0.67-1.41-1.2-2.31-1.56s-1.91-0.54-3.02-0.54c-1.12,0-2.14,0.18-3.03,0.54
					c-0.9,0.36-1.68,0.88-2.32,1.56c-0.64,0.67-1.13,1.5-1.47,2.44s-0.52,2.01-0.52,3.18c0,1.17,0.17,2.24,0.51,3.19
					s0.84,1.77,1.47,2.44c0.64,0.67,1.42,1.19,2.32,1.55s1.92,0.54,3.03,0.54c1.1,0,2.12-0.18,3.02-0.54
					c0.9-0.36,1.68-0.88,2.31-1.55c0.63-0.67,1.12-1.49,1.46-2.44s0.51-2.02,0.51-3.19s-0.17-2.24-0.51-3.18
					C281.83,115.66,281.34,114.84,280.71,114.17z M279.37,119.8c0,1.64-0.34,2.93-1,3.82s-1.64,1.32-2.98,1.32
					c-1.37,0-2.36-0.43-3.02-1.33c-0.67-0.89-1.01-2.18-1.01-3.82s0.34-2.93,1.01-3.83c0.66-0.9,1.65-1.33,3.02-1.33
					c1.33,0,2.33,0.45,2.98,1.33C279.03,116.87,279.37,118.16,279.37,119.8z"/>
				<path class="st0" d="M254.13,114.17c-0.63-0.67-1.41-1.2-2.31-1.56s-1.91-0.54-3.02-0.54c-1.12,0-2.14,0.18-3.03,0.54
					c-0.9,0.36-1.68,0.88-2.32,1.56c-0.64,0.67-1.13,1.5-1.47,2.44s-0.52,2.01-0.52,3.18c0,1.17,0.17,2.24,0.51,3.19
					s0.84,1.77,1.47,2.44c0.64,0.67,1.42,1.19,2.32,1.55s1.92,0.54,3.03,0.54c1.1,0,2.12-0.18,3.02-0.54
					c0.9-0.36,1.68-0.88,2.31-1.55c0.63-0.67,1.12-1.49,1.46-2.44s0.51-2.02,0.51-3.19s-0.17-2.24-0.51-3.18
					C255.25,115.66,254.76,114.84,254.13,114.17z M252.79,119.8c0,1.64-0.34,2.93-1,3.82s-1.64,1.32-2.98,1.32
					c-1.37,0-2.36-0.43-3.02-1.33c-0.67-0.89-1.01-2.18-1.01-3.82s0.34-2.93,1.01-3.83c0.66-0.9,1.65-1.33,3.02-1.33
					c1.33,0,2.33,0.45,2.98,1.33C252.45,116.87,252.79,118.16,252.79,119.8z"/>
				<path class="st0" d="M240.5,112.32c-0.08-0.04-0.16-0.08-0.27-0.11c-0.3-0.08-0.62-0.12-0.96-0.12c-0.98,0-1.83,0.29-2.53,0.87
					c-0.46,0.38-0.88,0.87-1.27,1.49v-2.38h-3.22v15.22l0.02,0.18h3.2v-9.03c0.02-0.48,0.37-1.21,0.57-1.56
					c0.21-0.36,0.44-0.66,0.7-0.9s0.55-0.42,0.88-0.54c0.33-0.12,0.72-0.18,1.15-0.18c0.29,0,0.58,0.03,0.84,0.08
					c0.52,0.1,0.77,0.13,1.02-0.03l0.08-0.05v-2.83l-0.11-0.05C240.57,112.35,240.54,112.34,240.5,112.32z"/>
				<path class="st0" d="M230.43,112.32c-0.08-0.04-0.16-0.08-0.27-0.11c-0.3-0.08-0.62-0.12-0.96-0.12c-0.98,0-1.83,0.29-2.53,0.87
					c-0.46,0.38-0.88,0.87-1.27,1.49v-2.38h-3.22v15.22l0.02,0.18h3.2v-9.03c0.02-0.48,0.37-1.21,0.57-1.56
					c0.21-0.36,0.44-0.66,0.7-0.9s0.55-0.42,0.88-0.54c0.33-0.12,0.72-0.18,1.15-0.18c0.29,0,0.58,0.03,0.84,0.08
					c0.52,0.1,0.77,0.13,1.02-0.03l0.08-0.05v-2.83l-0.11-0.05C230.5,112.35,230.46,112.34,230.43,112.32z"/>
				<g>
					<polygon class="st0" points="258.09,127.47 261.22,127.47 261.22,113.83 261.22,106.19 258.09,106.19 					"/>
					<polygon class="st0" points="263.16,127.47 266.29,127.47 266.29,113.83 266.29,106.19 263.16,106.19 					"/>
				</g>
			</g>
		</g>
		<g>
			<rect x="226.15" y="13.52" class="st0" width="9.64" height="30"/>
			<g>
				<rect x="226.15" y="4.05" class="st0" width="9.64" height="9.47"/>
			</g>
			<polygon class="st0" points="175.05,23.8 187.32,43.5 199.6,43.5 211.94,23.66 211.94,43.51 221.58,43.51 221.58,4.06 
				211.94,4.06 211.87,4.06 193.44,33.66 175.05,4.11 175.05,4.06 175.01,4.06 165.41,4.06 165.41,8.34 165.41,8.34 165.41,43.51 
				175.05,43.51 			"/>
			<polygon class="st0" points="421.6,43.51 458.44,43.51 464.45,33.88 427.57,33.88 427.57,4.06 417.93,4.06 417.93,43.51 			"/>
			<polygon class="st0" points="364.85,4.06 364.53,4.06 364.53,43.51 364.85,43.51 364.85,43.51 413.03,43.51 413.03,33.88 
				374.17,33.88 374.17,28.42 401.07,28.42 401.07,18.79 374.17,18.79 374.17,13.53 413.03,13.53 413.03,3.89 364.85,3.89 			"/>
			<path class="st0" d="M358.75,23.9V4.05h-9.66v2.82V23.9c0,5.64-4.59,10.24-10.24,10.24h-16.56c-5.64,0-10.24-4.59-10.24-10.24
				V6.87V4.05h-9.7c-0.05,6.49-0.13,18.21,0.04,19.85c0,10.97,8.93,19.9,19.9,19.9h16.56C349.82,43.8,358.75,34.87,358.75,23.9z"/>
			<path class="st0" d="M260.57,43.8h16.56c3.77,0,7.29-1.08,10.3-2.91v2.63h9.64V28.43v-7.57v-2.07h-0.73h-10.35h-16.97v9.64h17.28
				c-1.67,3.38-5.15,5.71-9.17,5.71h-16.56c-5.64,0-10.24-4.59-10.24-10.24s4.59-10.24,10.24-10.24h11.64L278.22,4h-17.66
				c-10.97,0-19.9,8.93-19.9,19.9C240.68,34.87,249.6,43.8,260.57,43.8z"/>
		</g>
		<g>
			<g>
				<polygon class="st0" points="379.66,58.95 379.66,64.9 379.66,92.99 379.66,94.47 379.66,98.95 407.59,98.95 407.59,92.99 
					385.63,92.99 385.63,84.86 407.54,84.86 407.54,78.9 385.63,78.9 385.63,64.9 407.59,64.9 407.59,58.93 379.66,58.93 				"/>
				<path class="st0" d="M374.29,71.89c0-7.16-5.83-12.99-12.99-12.99h-22.6v0.04h-5.13v40h5.97V84.88h19.77l8.8,14.14h6.18
					l-9.16-14.72C370.43,82.66,374.29,77.72,374.29,71.89z M339.54,64.91h21.76c3.85,0,6.99,3.13,6.99,6.99s-3.13,6.99-6.99,6.99
					h-21.76V64.91z"/>
				<path class="st0" d="M191.7,58.91h-0.03h-6.84h-0.03l-0.09,0.14l-24.83,39.9h6.87l8.59-13.8h25.83l8.59,13.8h6.87l-24.83-39.9
					L191.7,58.91z M179.06,79.19l9.2-14.78l9.2,14.78H179.06z"/>
				<polygon class="st0" points="450.42,58.91 443.55,58.91 443.54,58.93 412.73,58.93 412.73,64.9 439.83,64.9 418.63,98.95 
					423.05,98.95 425.5,98.95 456.21,98.95 456.21,92.99 429.22,92.99 				"/>
				<path class="st0" d="M304.16,58.91h-0.03h-6.84h-0.03l-0.09,0.14l-24.83,39.9h6.87l8.59-13.8h25.83l8.59,13.8h6.87l-24.83-39.9
					L304.16,58.91z M291.51,79.19l9.2-14.78l9.2,14.78H291.51z"/>
				<polygon class="st0" points="283.56,58.91 262.06,93.46 240.56,58.91 233.69,58.91 258.53,98.82 258.61,98.95 258.64,98.95 
					265.48,98.95 265.51,98.95 265.6,98.82 290.43,58.91 				"/>
				<polygon class="st0" points="247.98,92.99 226.69,92.99 226.69,58.95 220.72,58.95 220.72,92.99 220.72,92.99 220.72,98.95 
					251.7,98.95 251.61,98.82 				"/>
			</g>
			<polygon class="st0" points="190.42,47.75 185.75,55.24 192.38,55.24 197.05,47.75 			"/>
		</g>
	</g>
	<g>
		<g>
			<path class="st0" d="M71.52,49.19L61.18,65.8l10.34,16.67l19.55,0.06l10.38-16.72L91.07,49.14L71.52,49.19z M92.58,72.56
				l-0.01,0.02c-2.34,3.77-6.46,6.06-10.9,6.04h-0.78c-4.41-0.01-8.5-2.3-10.82-6.04l-0.01-0.02c-2.57-4.13-2.56-9.37,0.01-13.5l0,0
				c2.33-3.74,6.41-6.02,10.81-6.03h0.81c4.43-0.01,8.55,2.27,10.89,6.03l0,0C95.14,63.19,95.15,68.42,92.58,72.56z"/>
		</g>
		<path class="st0" d="M79.55,33.28c1,0,1.96-0.15,2.87-0.42l5.53,8.92H52.28c-1.74-4.35-6.4-7.21-11.57-6.13
			c-3.76,0.79-6.82,3.79-7.66,7.54c-0.68,3.01-0.01,5.85,1.51,8.06L16.35,80.47L7.21,65.78l24.28-39.12l38.56-0.06
			C71.46,30.49,75.18,33.28,79.55,33.28z"/>
		<path class="st0" d="M107.66,43.46c0-2.56,0.96-4.89,2.53-6.67L89.74,4.13H45.77l-9.56,15.16h33.97c1.52-3.7,5.15-6.3,9.39-6.3
			c5.61,0,10.15,4.55,10.15,10.15c0,2.45-0.87,4.7-2.32,6.46l18.1,29.11l5.07-8.14C108.77,48.74,107.66,46.23,107.66,43.46z"/>
		<path class="st0" d="M117.05,4.14L98.51,4.06l18.28,29.34c0.33-0.03,0.66-0.05,1-0.05l0,0l0,0c0.26,0,0.53,0.01,0.79,0.04
			c5.23,0.41,9.36,4.77,9.36,10.11c0,5.61-4.54,10.15-10.15,10.15c-0.15,0-0.3-0.02-0.45-0.02L99.52,82.56h11.34
			c1.4-3.9,5.12-6.69,9.51-6.69c0.53,0,1.05,0.05,1.57,0.13l19.95-31.97L117.05,4.14z"/>
		<path class="st0" d="M146.26,51.07l-17.87,28.68c1.36,1.73,2.18,3.9,2.18,6.27c0,5.61-4.55,10.15-10.15,10.15
			c-4.28,0-7.94-2.66-9.43-6.41H74.66l5.55,8.95c0.92-0.28,1.9-0.43,2.91-0.43c4.37,0,8.08,2.78,9.49,6.66l38.51-0.06l24.28-39.12
			L146.26,51.07z"/>
		<path class="st0" d="M45.28,97.27c-0.31,0.03-0.62,0.05-0.93,0.05c-5.61,0-10.15-4.55-10.15-10.15c0-5.61,4.55-10.15,10.15-10.15
			c0.48,0,0.94,0.04,1.4,0.11l17.34-28.15H52.4c-1.41,3.89-5.12,6.67-9.5,6.67c-0.74,0-1.45-0.08-2.15-0.23L20.73,87.5l24.83,39.9
			l18.54,0.08L45.28,97.27z"/>
		<path class="st0" d="M92.48,112.25c-1.51,3.72-5.15,6.34-9.41,6.34c-5.61,0-10.15-4.55-10.15-10.15c0-2.45,0.87-4.7,2.32-6.46
			L57.12,72.84l-4.92,7.9c1.44,1.75,2.3,3.98,2.3,6.42c0,2.6-0.99,4.96-2.6,6.75l20.97,33.5h43.97l9.56-15.16L92.48,112.25
			L92.48,112.25z"/>
	</g>
</g>
</svg>
