<?xml version="1.0" encoding="utf-8"?>
<!-- Generator: Adobe Illustrator 27.9.0, SVG Export Plug-In . SVG Version: 6.00 Build 0)  -->
<svg version="1.1" id="Capa_1" xmlns="http://www.w3.org/2000/svg" xmlns:xlink="http://www.w3.org/1999/xlink" x="0px" y="0px"
	 viewBox="0 0 417 349" style="enable-background:new 0 0 417 349;" xml:space="preserve">
<style type="text/css">
	.st0{fill:#406BAD;}
</style>
<g>
	<g>
		<path class="st0" d="M182.75,126.17l-28.25,45.41l28.28,45.54l53.42,0.15l28.35-45.72l-28.35-45.56L182.75,126.17z M240.3,190.04
			l-0.05,0.05c-6.4,10.3-17.67,16.55-29.78,16.52h-2.14c-12.06-0.03-23.23-6.27-29.58-16.52l-0.03-0.05
			c-7.01-11.3-7.01-25.6,0.03-36.89l0,0c6.35-10.22,17.52-16.45,29.55-16.47h2.22c12.11-0.03,23.38,6.2,29.78,16.47l0,0
			C247.31,164.44,247.31,178.72,240.3,190.04z"/>
	</g>
	<path class="st0" d="M204.71,82.67c2.73,0,5.35-0.41,7.85-1.15l15.12,24.38h-97.5c-4.77-11.88-17.49-19.71-31.62-16.75
		c-10.28,2.14-18.64,10.35-20.93,20.6c-1.86,8.21-0.03,15.99,4.13,22.03l-49.77,79.88L7,171.53L73.34,64.59l105.41-0.15
		C182.57,75.07,192.75,82.67,204.71,82.67z"/>
	<path d="M281.5,110.51c0-6.99,2.63-13.36,6.91-18.23L232.52,3.01H112.38L86.25,44.45h92.84c4.16-10.1,14.07-17.24,25.68-17.24
		c15.32,0,27.74,12.42,27.74,27.74c0,6.71-2.37,12.85-6.32,17.64l49.46,79.55l13.87-22.26C284.56,124.92,281.5,118.08,281.5,110.51z
		"/>
	<path class="st0" d="M307.21,3.04l-50.69-0.23L306.49,83c0.89-0.08,1.81-0.13,2.73-0.13l0,0l0,0c0.71,0,1.43,0.03,2.17,0.1
		c14.3,1.12,25.57,13.05,25.57,27.64c0,15.32-12.42,27.74-27.74,27.74c-0.41,0-0.82-0.05-1.22-0.05l-48.7,79.07h30.98
		c3.82-10.66,14-18.28,25.98-18.28c1.45,0,2.88,0.15,4.28,0.36l54.54-87.38L307.21,3.04z"/>
	<path d="M387.04,131.32l-48.85,78.38c3.72,4.72,5.94,10.66,5.94,17.13c0,15.32-12.42,27.74-27.74,27.74
		c-11.7,0-21.7-7.27-25.78-17.52h-99.29l15.17,24.45c2.52-0.76,5.2-1.17,7.96-1.17c11.93,0,22.08,7.6,25.96,18.21l105.25-0.15
		L412,171.45L387.04,131.32z"/>
	<path d="M111.03,257.58c-0.84,0.08-1.68,0.13-2.55,0.13c-15.32,0-27.74-12.42-27.74-27.74s12.42-27.74,27.74-27.74
		c1.3,0,2.58,0.13,3.82,0.31l47.4-76.93h-29.22c-3.85,10.63-14,18.23-25.96,18.23c-2.01,0-3.98-0.23-5.86-0.64l-54.74,87.71
		l67.87,109.05l50.69,0.23L111.03,257.58z"/>
	<path class="st0" d="M240.05,298.53c-4.13,10.15-14.07,17.34-25.7,17.34c-15.32,0-27.74-12.42-27.74-27.74
		c0-6.71,2.37-12.85,6.35-17.64l-49.54-79.65l-13.44,21.6c3.93,4.77,6.3,10.89,6.3,17.54c0,7.09-2.7,13.54-7.09,18.43l57.32,91.56
		h120.17l26.13-41.43H240.05z"/>
</g>
</svg>
