<?xml version="1.0" encoding="utf-8"?>
<!-- Generator: Adobe Illustrator 24.0.0, SVG Export Plug-In . SVG Version: 6.00 Build 0)  -->
<svg version="1.1" id="Capa_1" xmlns="http://www.w3.org/2000/svg" xmlns:xlink="http://www.w3.org/1999/xlink" x="0px" y="0px"
	 viewBox="0 0 60 60" style="enable-background:new 0 0 60 60;" xml:space="preserve">
<style type="text/css">
	.st0{fill:#2081B9;}
	.st1{fill:#474646;}
	.st2{fill:#FFFFFF;}
	.st3{fill-rule:evenodd;clip-rule:evenodd;fill:#474646;}
	.st4{opacity:0.5;}
	.st5{fill-rule:evenodd;clip-rule:evenodd;}
	.st6{fill-rule:evenodd;clip-rule:evenodd;fill:#FFFFFF;}
</style>
<g>
	<g>
		<rect x="43.88" y="26.38" class="st0" width="1.13" height="3.41"/>
		<path class="st0" d="M43.26,27.98v-1.01c-1.46,0.5-2.51,1.88-2.51,3.51c0,2.04,1.66,3.7,3.7,3.7c2.04,0,3.7-1.66,3.7-3.7
			c0-1.63-1.05-3.01-2.51-3.51v1.01c0.93,0.45,1.58,1.4,1.58,2.5c0,1.53-1.24,2.77-2.77,2.77c-1.53,0-2.77-1.24-2.77-2.77
			C41.69,29.38,42.33,28.43,43.26,27.98z"/>
	</g>
	<g>
		<path class="st0" d="M11.28,32.97l-3.01-2.85l3.01-2.86h1.42l-3.01,2.86l3.01,2.85H11.28z"/>
		<path class="st0" d="M16.48,27.16l-2.09,5.99h-1.1l2.08-5.99H16.48z"/>
		<path class="st0" d="M17.2,27.25h1.42l3.01,2.86l-3.01,2.85H17.2l3.01-2.85L17.2,27.25z"/>
	</g>
	<path class="st3" d="M56.54,25.63c-4.21-2.17-11.71-2.89-14.23-2.95c-2.55-0.06-9.5,0.76-9.5,0.76c-1.87-0.72-3.02-0.53-3.02-0.53
		s-1.16-0.19-3.02,0.53c0,0-6.95-0.82-9.5-0.76c-2.53,0.06-10.02,0.78-14.23,2.95c-0.08,0.04-0.12,0.12-0.12,0.21v1.29
		c0,0.23,0.16,0.43,0.39,0.48c0.18,0.04,0.4,0.11,0.53,0.25c0.48,0.48,0.38,1.63,0.84,4.33c0.3,1.76,1.18,4.27,2.55,5.29
		s2.57,1.2,7.4,1.08c4.83-0.12,7.34-0.92,8.88-2.29c1.54-1.38,2.27-2.68,3.49-7.22c1.22-4.54,1.56-3.97,2.81-4.09
		c1.26,0.12,1.6-0.46,2.81,4.09c1.22,4.54,1.95,5.84,3.49,7.22c1.54,1.38,4.05,2.17,8.88,2.29c4.83,0.12,6.02-0.06,7.4-1.08
		c1.38-1.02,2.25-3.53,2.55-5.29c0.46-2.7,0.36-3.85,0.84-4.33c0.14-0.14,0.35-0.21,0.53-0.25c0.23-0.05,0.39-0.25,0.39-0.48v-1.29
		C56.66,25.75,56.61,25.67,56.54,25.63z M25.73,29.92c-0.21,0.75-0.87,3.39-2.64,5.43c-1.77,2.04-6.72,2.34-9.52,2.37
		c-2.8,0.03-6.27,0.75-7.68-3.81c-1.41-4.56-0.6-6.78,0-7.5c0.42-0.51,2.19-2.61,10.29-2.85c8.1-0.24,9.55,1.32,10.02,2.25
		C26.78,26.92,25.94,29.17,25.73,29.92z M53.66,33.91c-1.41,4.56-4.88,3.84-7.68,3.81c-2.8-0.03-7.75-0.33-9.52-2.37
		c-1.77-2.04-2.43-4.68-2.64-5.43c-0.21-0.75-1.05-3-0.48-4.11c0.48-0.93,1.92-2.49,10.02-2.25c8.1,0.24,9.87,2.35,10.29,2.85
		C54.26,27.13,55.07,29.35,53.66,33.91z"/>
</g>
</svg>
