<?xml version="1.0" encoding="utf-8"?>
<!-- Generator: Adobe Illustrator 24.0.0, SVG Export Plug-In . SVG Version: 6.00 Build 0)  -->
<svg version="1.1" id="Capa_1" xmlns="http://www.w3.org/2000/svg" xmlns:xlink="http://www.w3.org/1999/xlink" x="0px" y="0px"
	 viewBox="0 0 900 545.85" style="enable-background:new 0 0 900 545.85;" xml:space="preserve">
<style type="text/css">
	.st0{fill:#2081B9;}
	.st1{fill:#474646;}
	.st2{fill:#FFFFFF;}
	.st3{fill-rule:evenodd;clip-rule:evenodd;fill:#474646;}
	.st4{opacity:0.5;}
	.st5{fill-rule:evenodd;clip-rule:evenodd;}
	.st6{fill-rule:evenodd;clip-rule:evenodd;fill:#FFFFFF;}
</style>
<g>
	<g>
		<g>
			<path class="st2" d="M205.39,314.98L167.8,392l-36.87-77.02h-24.31v113.34h24.29v-56.68l27.52,56.68h19.44l27.52-56.68v56.68
				h24.29V314.98H205.39z"/>
			<path class="st2" d="M312.27,376.35c4.43,0,8.23-1.58,11.42-4.76c3.18-3.18,4.78-6.98,4.78-11.39v-29.07
				c0-4.42-1.6-8.22-4.78-11.39c-3.19-3.18-6.99-4.76-11.42-4.76h-72.86v22.51h64.76v16.35H255.6c-4.42,0-8.23,1.6-11.41,4.78
				c-3.19,3.18-4.78,6.99-4.78,11.42v58.28h89.06v-22.51h-64.77v-29.46H312.27z"/>
			<path class="st2" d="M409.43,314.98h-30.76l-45.34,113.34h28.25l8.88-22.6l23.5-60.52l24.14,60.52h-33.35l-8.88,22.6h78.91
				L409.43,314.98z"/>
		</g>
	</g>
	<g>
		<path class="st2" d="M569.38,319.75c-3.18-3.19-6.99-4.78-11.41-4.78H477v113.34h80.97c4.42,0,8.23-1.58,11.41-4.78
			c3.19-3.18,4.78-6.98,4.78-11.41v-80.97C574.16,326.74,572.57,322.93,569.38,319.75z M549.87,405.81h-48.58v-68.32h48.58V405.81z"
			/>
		<path class="st2" d="M600.07,314.98c-4.43,0-8.24,1.58-11.42,4.78c-3.18,3.18-4.78,6.99-4.78,11.41v80.97
			c0,4.43,1.6,8.23,4.78,11.41c3.18,3.19,6.99,4.78,11.42,4.78h72.86v-22.51h-64.76v-68.32h64.76v-22.51H600.07z M621.74,381.11
			h46.42V358.6h-46.42V381.11z"/>
		<path class="st2" d="M760.21,343.79L738.6,398.1l-33.07-83.13h-27.74l45.34,113.34h30.77l33.81-84.53H760.21z M771.68,314.98
			l-8.15,20.47h27.51l8.19-20.47H771.68z"/>
	</g>
</g>
<g>
	<g>
		<rect x="593.52" y="151.74" class="st2" width="11.22" height="34"/>
		<path class="st2" d="M587.38,167.64V157.6c-14.55,4.95-25.05,18.74-25.05,34.94c0,20.35,16.56,36.91,36.91,36.91
			c20.35,0,36.91-16.56,36.91-36.91c0-16.21-10.5-29.99-25.05-34.94v10.05c9.29,4.44,15.73,13.93,15.73,24.9
			c0,15.21-12.37,27.58-27.58,27.58c-15.21,0-27.58-12.37-27.58-27.58C571.65,181.58,578.09,172.09,587.38,167.64z"/>
	</g>
	<g>
		<path class="st2" d="M268.66,217.37l-30.04-28.42l30.04-28.55h14.15l-30.04,28.55l30.04,28.42H268.66z"/>
		<path class="st2" d="M320.41,159.47l-20.83,59.72h-10.92l20.71-59.72H320.41z"/>
		<path class="st2" d="M327.64,160.4h14.15l30.04,28.55l-30.04,28.42h-14.15l30.04-28.42L327.64,160.4z"/>
	</g>
	<path class="st6" d="M719.64,144.24c-41.99-21.58-116.69-28.76-141.86-29.35c-25.42-0.6-94.7,7.55-94.7,7.55
		c-18.61-7.16-30.14-5.31-30.14-5.31s-11.53-1.84-30.14,5.31c0,0-69.28-8.15-94.7-7.55c-25.17,0.59-99.87,7.77-141.86,29.35
		c-0.76,0.39-1.24,1.18-1.24,2.04v12.81c0,2.3,1.6,4.28,3.85,4.77c1.84,0.4,3.94,1.14,5.29,2.5c4.77,4.77,3.76,16.2,8.35,43.13
		c2.98,17.49,11.73,42.54,25.44,52.67c13.71,10.14,25.64,11.93,73.74,10.73c48.1-1.19,73.15-9.14,88.45-22.86
		c15.31-13.71,22.66-26.67,34.78-71.95c12.12-45.29,15.5-39.54,28.02-40.74c12.52,1.2,15.9-4.55,28.03,40.74
		c12.12,45.29,19.48,58.24,34.78,71.95c15.3,13.72,40.35,21.67,88.45,22.86c48.1,1.19,60.03-0.6,73.74-10.73
		c13.71-10.14,22.46-35.18,25.44-52.67c4.59-26.93,3.58-38.36,8.35-43.13c1.36-1.36,3.45-2.1,5.3-2.5c2.25-0.49,3.85-2.47,3.85-4.77
		v-12.81C720.87,145.42,720.4,144.63,719.64,144.24z M412.63,186.96c-2.09,7.48-8.67,33.8-26.32,54.14
		c-17.65,20.34-67,23.33-94.87,23.63c-27.87,0.3-62.46,7.48-76.52-37.99c-14.06-45.46-5.98-67.6,0-74.78
		c4.2-5.04,21.84-26.02,102.59-28.42c80.76-2.39,95.13,13.15,99.9,22.46C423.1,157.1,414.72,179.48,412.63,186.96z M690.95,226.74
		c-14.06,45.46-48.64,38.29-76.52,37.99c-27.87-0.3-77.22-3.29-94.87-23.63c-17.65-20.34-24.23-46.66-26.32-54.14
		c-2.09-7.48-10.47-29.86-4.79-40.95c4.77-9.31,19.14-24.85,99.9-22.46c80.76,2.39,98.39,23.38,102.59,28.42
		C696.93,159.14,705,181.27,690.95,226.74z"/>
</g>
</svg>
