<svg version="1.1" id="Layer_1" xmlns="http://www.w3.org/2000/svg" xmlns:xlink="http://www.w3.org/1999/xlink" x="0px" y="0px" viewBox="0 0 384 121.8" style="enable-background:new 0 0 384 121.8;" xml:space="preserve">
 <style type="text/css">
  .st0{fill-rule:evenodd;clip-rule:evenodd;fill:#98CA3F;}
	.st1{fill:#4D4C4D;}
 </style>
 <g>
  <g>
   <g>
    <path class="st0" d="M47.1,5.7L5.7,47.1c-7.6,7.6-7.6,20,0,27.6l41.4,41.4c7.6,7.6,20,7.6,27.6,0l13.8-13.8L74.7,88.5l-13.8,13.8
				L19.5,60.9l41.4-41.4l27.6,27.6L60.9,74.7l13.8,13.8l27.6-27.6c7.6-7.6,7.6-20,0-27.6L74.7,5.7C67.1-1.9,54.7-1.9,47.1,5.7z">
    </path>
   </g>
  </g>
  <g>
   <path class="st1" d="M133.7,97V25.1h29.8c16,0,25.4,11.7,25.4,25.4c0,13.5-9.5,25-25.4,25h-17.8V97H133.7z M163.4,65
			c8.1,0,13.9-6.5,13.9-14.8c0-8.3-5.5-14.7-13.9-14.7h-18V65H163.4z">
   </path>
   <path class="st1" d="M207.3,25.1v54.1c0,8.2,2.2,10.8,10.7,9.4l0.4,8.6c-15.2,2.5-22.2-1.4-22.2-18V25.1H207.3z">
   </path>
   <path class="st1" d="M269.6,82.2c0,4.5-0.1,7.4,5.3,6.9v7.6c-7.1,1.3-14.4,0.5-14.4-7.7V87c-2.8,6.9-9.8,10.8-17,10.8
			c-15.1,0-22.4-12.1-22.4-26.1c0.3-16.4,12-25.5,28.1-25.2c7.1,0,13.9,1.7,20.3,4.6V82.2z M258.8,57.6c-3.4-1.5-7.2-2.1-10.4-2.1
			c-9.4,0-15.8,5.4-16.1,16.1c0,9,4.4,16.1,13.6,16.1c8.3,0,12.6-6.5,12.9-15.6V57.6z">
   </path>
   <path class="st1" d="M298.4,47.6h17.1v9h-17.1v21.3c0,12.6,7.9,13.5,18.1,9.9l1.1,8.4c-16.9,5.2-30.2,1.3-30.2-18.1V56.7h-10.1v-9
			h10.1V35.5h11V47.6z">
   </path>
   <path class="st1" d="M322.6,94.8l14.4-22.5l10.8-15.6h-23.6v-9.1h39.7V49l-15.3,23.7l-10.1,14.7h25.3V97h-41.2V94.8z">
   </path>
   <path class="st1" d="M377.3,25c3.4,0,6.7,2.3,6.7,6.6c0,4.4-3.3,6.7-6.6,6.7c-3.4,0-6.9-2.2-6.9-6.7C370.5,27.2,373.9,25,377.3,25
			z M382.9,97h-11.2V47.6h11.2V97z">
   </path>
  </g>
 </g>
</svg>