<?xml version="1.0" encoding="utf-8"?>
<!-- Generator: Adobe Illustrator 24.0.0, SVG Export Plug-In . SVG Version: 6.00 Build 0)  -->
<svg version="1.1" id="Capa_1" xmlns="http://www.w3.org/2000/svg" xmlns:xlink="http://www.w3.org/1999/xlink" x="0px" y="0px"
	 viewBox="0 0 660 281.36" style="enable-background:new 0 0 660 281.36;" xml:space="preserve">
<style type="text/css">
	.st0{fill:#2081B9;}
	.st1{fill:#474646;}
	.st2{fill:#FFFFFF;}
	.st3{fill-rule:evenodd;clip-rule:evenodd;fill:#474646;}
	.st4{opacity:0.5;}
	.st5{fill-rule:evenodd;clip-rule:evenodd;}
	.st6{fill-rule:evenodd;clip-rule:evenodd;fill:#FFFFFF;}
</style>
<g>
	<g>
		<rect x="472.08" y="94.25" class="st2" width="11.22" height="34"/>
		<path class="st2" d="M465.95,110.15v-10.04c-14.55,4.95-25.05,18.74-25.05,34.94c0,20.35,16.56,36.91,36.91,36.91
			c20.35,0,36.91-16.56,36.91-36.91c0-16.21-10.5-29.99-25.05-34.94v10.05c9.29,4.44,15.73,13.93,15.73,24.9
			c0,15.21-12.37,27.58-27.58,27.58c-15.21,0-27.58-12.37-27.58-27.58C450.22,124.09,456.65,114.6,465.95,110.15z"/>
	</g>
	<g>
		<path class="st2" d="M147.23,159.88l-30.04-28.42l30.04-28.55h14.15l-30.04,28.55l30.04,28.42H147.23z"/>
		<path class="st2" d="M198.98,101.98l-20.83,59.72h-10.92l20.71-59.72H198.98z"/>
		<path class="st2" d="M206.2,102.91h14.15l30.04,28.55l-30.04,28.42H206.2l30.04-28.42L206.2,102.91z"/>
	</g>
	<path class="st6" d="M598.2,86.75c-41.99-21.58-116.69-28.76-141.86-29.35c-25.42-0.6-94.7,7.55-94.7,7.55
		c-18.61-7.16-30.14-5.31-30.14-5.31s-11.53-1.84-30.14,5.31c0,0-69.28-8.15-94.7-7.55c-25.17,0.59-99.87,7.77-141.86,29.35
		c-0.76,0.39-1.24,1.18-1.24,2.04v12.81c0,2.3,1.6,4.28,3.85,4.77c1.84,0.4,3.94,1.14,5.29,2.5c4.77,4.77,3.76,16.2,8.35,43.13
		c2.98,17.49,11.73,42.54,25.44,52.67s25.64,11.93,73.74,10.73c48.1-1.19,73.15-9.14,88.45-22.86
		c15.31-13.71,22.66-26.67,34.78-71.95s15.5-39.54,28.02-40.74c12.52,1.2,15.9-4.55,28.03,40.74
		c12.12,45.29,19.48,58.24,34.78,71.95c15.3,13.72,40.35,21.67,88.45,22.86c48.1,1.19,60.03-0.6,73.74-10.73
		c13.71-10.14,22.46-35.18,25.44-52.67c4.59-26.93,3.58-38.36,8.35-43.13c1.36-1.36,3.45-2.1,5.3-2.5c2.25-0.49,3.85-2.47,3.85-4.77
		V88.79C599.44,87.93,598.97,87.14,598.2,86.75z M291.19,129.47c-2.09,7.48-8.67,33.8-26.32,54.14
		c-17.65,20.34-67,23.33-94.87,23.63c-27.87,0.3-62.46,7.48-76.52-37.99c-14.06-45.46-5.98-67.6,0-74.78
		c4.2-5.04,21.84-26.02,102.59-28.42c80.76-2.39,95.13,13.15,99.9,22.46C301.66,99.61,293.28,121.99,291.19,129.47z M569.51,169.25
		c-14.06,45.46-48.64,38.29-76.52,37.99c-27.87-0.3-77.22-3.29-94.87-23.63c-17.65-20.34-24.23-46.66-26.32-54.14
		c-2.09-7.48-10.47-29.86-4.79-40.95c4.77-9.31,19.14-24.85,99.9-22.46c80.76,2.39,98.39,23.38,102.59,28.42
		C575.49,101.65,583.57,123.78,569.51,169.25z"/>
</g>
</svg>
